<svg width="32" height="32" viewBox="0 0 24 24" fill="none" xmlns="http://www.w3.org/2000/svg" aria-hidden="true" focusable="false">
<path fill-rule="evenodd" clip-rule="evenodd" d="M12 .5C5.648.5.5 5.648.5 12c0 5.086 3.292 9.386 7.868 10.907.575.108.785-.245.785-.548 0-.272-.01-1.164-.016-2.112-3.201.695-3.877-1.357-3.877-1.357-.523-1.328-1.278-1.682-1.278-1.682-1.044-.714.08-.699.08-.699 1.154.081 1.761 1.185 1.761 1.185 1.027 1.76 2.694 1.252 3.35.957.104-.744.402-1.252.732-1.54-2.554-.291-5.238-1.277-5.238-5.683 0-1.255.452-2.282 1.19-3.087-.119-.292-.516-1.468.113-3.06 0 0 .968-.31 3.172 1.18a11.07 11.07 0 0 1 2.887-.389c.979.005 1.966.133 2.887.389 2.204-1.49 3.17-1.18 3.17-1.18.631 1.592.234 2.768.116 3.06.74.805 1.188 1.832 1.188 3.087 0 4.417-2.688 5.389-5.253 5.675.414.356.78 1.057.78 2.133 0 1.54-.014 2.781-.014 3.16 0 .305.208.662.79.547C20.212 21.382 23.5 17.084 23.5 12c0-6.352-5.148-11.5-11.5-11.5Z" fill="currentColor"/>
</svg>